<svg width="640" height="640" viewBox="0 0 640 640" fill="none" xmlns="http://www.w3.org/2000/svg">
<path d="M496.68 0H142.63C63.8576 0 0 63.8576 0 142.63V496.68C0 575.452 63.8576 639.31 142.63 639.31H496.68C575.452 639.31 639.31 575.452 639.31 496.68V142.63C639.31 63.8576 575.452 0 496.68 0Z" fill="#2E7BFA"/>
<path d="M335.381 490.289L365.781 442.399C366.951 440.549 368.981 439.419 371.181 439.399L432.761 438.719C437.641 438.659 440.711 433.429 438.371 429.139L402.231 363.139C401.091 361.059 398.921 359.769 396.551 359.769H325.771C323.211 359.769 320.891 358.259 319.851 355.909L299.991 310.989C298.101 306.709 301.231 301.899 305.911 301.899H438.081C440.391 301.899 442.531 303.129 443.691 305.139L550.721 490.509C553.211 494.829 550.101 500.219 545.111 500.219H340.861C335.761 500.219 332.661 494.589 335.391 490.279L335.381 490.289Z" fill="white"/>
<path d="M355.761 281.8L327.151 229.9C324.711 225.47 318.341 225.43 315.851 229.84L279.591 294C278.561 295.82 278.481 298.01 279.361 299.91L309.241 364.27C310.131 366.19 310.031 368.42 308.961 370.25L286.081 409.57C284.721 411.9 282.061 413.15 279.391 412.69C277.541 412.37 275.911 411.26 274.931 409.64L206.091 295.1C204.881 293.09 204.861 290.58 206.021 288.54L314.061 100.08C316.551 95.7497 322.791 95.7397 325.281 100.07L426.511 275.42C429.001 279.74 425.891 285.13 420.901 285.13H361.421C359.061 285.13 356.891 283.85 355.751 281.79H355.761V281.8Z" fill="white"/>
<path d="M230.881 375.6L199.331 433.2C196.971 437.52 200.091 442.78 205.011 442.78H281.861C284.111 442.78 286.201 441.61 287.371 439.68L324.681 378.78C325.851 376.86 327.941 375.68 330.191 375.68H377.861C382.931 375.68 386.031 381.24 383.371 385.55L314.551 497.13C313.381 499.04 311.291 500.2 309.041 500.2H94.2207C89.2307 500.2 86.1307 494.8 88.6107 490.49L188.571 317.36C191.031 313.08 197.191 313.03 199.731 317.28L230.751 369.16C231.921 371.13 231.971 373.57 230.871 375.59H230.881V375.6Z" fill="white"/>
</svg>
